<?xml version="1.0" encoding="UTF-8" standalone="no"?>
<!-- Created with Inkscape (http://www.inkscape.org/) -->

<svg
   xmlns:dc="http://purl.org/dc/elements/1.1/"
   xmlns:cc="http://creativecommons.org/ns#"
   xmlns:rdf="http://www.w3.org/1999/02/22-rdf-syntax-ns#"
   xmlns:svg="http://www.w3.org/2000/svg"
   xmlns="http://www.w3.org/2000/svg"
   xmlns:sodipodi="http://sodipodi.sourceforge.net/DTD/sodipodi-0.dtd"
   xmlns:inkscape="http://www.inkscape.org/namespaces/inkscape"
   width="417.44217"
   height="173.30307"
   id="svg2"
   version="1.1"
   inkscape:version="0.48.4 r9939"
   sodipodi:docname="earlgrey.svg">
  <defs
     id="defs4" />
  <sodipodi:namedview
     id="base"
     pagecolor="#ffffff"
     bordercolor="#666666"
     borderopacity="1.0"
     inkscape:pageopacity="0.0"
     inkscape:pageshadow="2"
     inkscape:zoom="1.979899"
     inkscape:cx="112.05119"
     inkscape:cy="29.913877"
     inkscape:document-units="px"
     inkscape:current-layer="layer1"
     showgrid="false"
     inkscape:snap-global="true"
     inkscape:snap-bbox="true"
     inkscape:window-width="1920"
     inkscape:window-height="1056"
     inkscape:window-x="0"
     inkscape:window-y="24"
     inkscape:window-maximized="1"
     fit-margin-top="0"
     fit-margin-left="0"
     fit-margin-right="0"
     fit-margin-bottom="0">
    <inkscape:grid
       type="xygrid"
       id="grid3756"
       empspacing="5"
       visible="true"
       enabled="true"
       snapvisiblegridlinesonly="true"
       originx="-162.26368px"
       originy="-490.31611px" />
  </sodipodi:namedview>
  <metadata
     id="metadata7">
    <rdf:RDF>
      <cc:Work
         rdf:about="">
        <dc:format>image/svg+xml</dc:format>
        <dc:type
           rdf:resource="http://purl.org/dc/dcmitype/StillImage" />
        <dc:title />
      </cc:Work>
    </rdf:RDF>
  </metadata>
  <g
     inkscape:label="Layer 1"
     inkscape:groupmode="layer"
     id="layer1"
     transform="translate(-162.26368,-388.743)">
    <path
       style="fill:#000000;stroke:#000000;stroke-width:3.80947995000000006;stroke-linecap:butt;stroke-linejoin:miter;stroke-miterlimit:4;stroke-opacity:1;fill-opacity:1"
       d="m 359.16842,437.36218 0,30 -40,35 c 0,0 -52.97888,12.55665 -80,15 -23.7526,2.1478 -71.54763,-0.35711 -71.54763,-0.35711 l -3.45237,-64.64289 3.45237,-61.54763 c 0,0 47.82047,-0.91664 71.54763,1.54763 26.98621,2.80276 80,15 80,15 z"
       id="path3061"
       inkscape:connector-curvature="0"
       sodipodi:nodetypes="cccscccscc" />
    <path
       sodipodi:nodetypes="cccscccscc"
       inkscape:connector-curvature="0"
       id="path3083"
       d="m 382.80112,437.36218 0,30 40,35 c 0,0 52.97888,12.55665 80,15 23.7526,2.1478 71.54763,-0.35711 71.54763,-0.35711 l 3.45237,-64.64289 -3.45237,-61.54763 c 0,0 -47.82047,-0.91664 -71.54763,1.54763 -26.98621,2.80276 -80,15 -80,15 z"
       style="fill:#000000;stroke:#000000;stroke-width:3.80947995000000006;stroke-linecap:butt;stroke-linejoin:miter;stroke-miterlimit:4;stroke-opacity:1;fill-opacity:1" />
    <rect
       y="437.36218"
       x="360"
       height="30"
       width="5"
       id="rect3095"
       style="fill:#ffffff;fill-opacity:1;stroke:#000000;stroke-width:2;stroke-miterlimit:4;stroke-opacity:1;stroke-dasharray:none" />
    <rect
       style="fill:#ffffff;fill-opacity:1;stroke:#000000;stroke-width:2;stroke-miterlimit:4;stroke-opacity:1;stroke-dasharray:none"
       id="rect3097"
       width="5"
       height="30"
       x="365.74744"
       y="437.36218" />
    <rect
       y="437.36218"
       x="371.49487"
       height="30"
       width="5"
       id="rect3099"
       style="fill:#ffffff;fill-opacity:1;stroke:#000000;stroke-width:2;stroke-miterlimit:4;stroke-opacity:1;stroke-dasharray:none" />
    <rect
       style="fill:#ffffff;fill-opacity:1;stroke:#000000;stroke-width:2;stroke-miterlimit:4;stroke-opacity:1;stroke-dasharray:none"
       id="rect3101"
       width="5"
       height="30"
       x="377.24231"
       y="437.36218" />
    <path
       sodipodi:nodetypes="cccccsccssccccc"
       inkscape:connector-curvature="0"
       id="path3103"
       d="m 360.07718,467.33219 0,18.08698 0,0.0943 0,0.0629 c 0,0 0.0905,3.67455 -0.0947,8.30428 -0.18514,4.62974 -0.73863,10.22285 -1.59075,13.08553 -2.59212,8.70822 -4.04374,12.34522 -7.15833,16.0109 -6.26506,2.87443 -0.3947,10.61666 3.93916,3.79637 3.85078,-4.5321 4.86734,-7.2207 7.55584,-16.25269 1.46666,-4.92723 1.87969,-11.01807 2.08312,-16.10527 0.19993,-4.99984 0.11692,-8.85922 0.11362,-8.99629 -5e-5,-0.002 0,-0.15729 0,-0.15729 l 0,-17.92969 -4.84797,0 z"
       style="font-size:medium;font-style:normal;font-variant:normal;font-weight:normal;font-stretch:normal;text-indent:0;text-align:start;text-decoration:none;line-height:normal;letter-spacing:normal;word-spacing:normal;text-transform:none;direction:ltr;block-progression:tb;writing-mode:lr-tb;text-anchor:start;baseline-shift:baseline;color:#000000;fill:none;stroke:#000000;stroke-width:1.85000002;stroke-miterlimit:4;stroke-opacity:1;stroke-dasharray:none;marker:none;visibility:visible;display:inline;overflow:visible;enable-background:accumulate;font-family:Sans;-inkscape-font-specification:Sans" />
    <rect
       y="465.34418"
       x="361.00488"
       height="3.5355339"
       width="2.9988904"
       id="rect3107"
       style="fill:#ffffff;fill-opacity:1;stroke:none" />
    <path
       style="font-size:medium;font-style:normal;font-variant:normal;font-weight:normal;font-stretch:normal;text-indent:0;text-align:start;text-decoration:none;line-height:normal;letter-spacing:normal;word-spacing:normal;text-transform:none;direction:ltr;block-progression:tb;writing-mode:lr-tb;text-anchor:start;baseline-shift:baseline;color:#000000;fill:none;stroke:#000000;stroke-width:1.85000002;stroke-miterlimit:4;stroke-opacity:1;stroke-dasharray:none;marker:none;visibility:visible;display:inline;overflow:visible;enable-background:accumulate;font-family:Sans;-inkscape-font-specification:Sans"
       d="m 382.06321,467.33219 0,18.08698 0,0.0943 0,0.0629 c 0,0 -0.0905,3.67455 0.0947,8.30428 0.18514,4.62974 0.73863,10.22285 1.59075,13.08553 2.59212,8.70822 4.04374,12.34522 7.15833,16.0109 6.26506,2.87443 0.3947,10.61666 -3.93916,3.79637 -3.85078,-4.5321 -4.86734,-7.2207 -7.55584,-16.25269 -1.46666,-4.92723 -1.87969,-11.01807 -2.08312,-16.10527 -0.19993,-4.99984 -0.11692,-8.85922 -0.11362,-8.99629 5e-5,-0.002 0,-0.15729 0,-0.15729 l 0,-17.92969 4.84797,0 z"
       id="path3113"
       inkscape:connector-curvature="0"
       sodipodi:nodetypes="cccccsccssccccc" />
    <rect
       transform="matrix(-0.9450348,0.32696976,0.32696976,0.9450348,0,0)"
       y="619.18311"
       x="-212.65732"
       height="35.714287"
       width="35.714287"
       id="rect3115"
       style="fill:#000000;fill-opacity:1;stroke:#000000;stroke-width:2;stroke-miterlimit:4;stroke-opacity:1;stroke-dasharray:none" />
    <rect
       style="fill:#000000;fill-opacity:1;stroke:#000000;stroke-width:2;stroke-miterlimit:4;stroke-opacity:1;stroke-dasharray:none"
       id="rect3105"
       width="35.714287"
       height="35.714287"
       x="488.69165"
       y="376.52576"
       transform="matrix(0.9450348,0.32696976,-0.32696976,0.9450348,0,0)" />
  </g>
</svg>
