<?xml version="1.0" encoding="UTF-8" standalone="no"?>
<!-- Created with Inkscape (http://www.inkscape.org/) -->

<svg
   xmlns:dc="http://purl.org/dc/elements/1.1/"
   xmlns:cc="http://creativecommons.org/ns#"
   xmlns:rdf="http://www.w3.org/1999/02/22-rdf-syntax-ns#"
   xmlns:svg="http://www.w3.org/2000/svg"
   xmlns="http://www.w3.org/2000/svg"
   xmlns:sodipodi="http://sodipodi.sourceforge.net/DTD/sodipodi-0.dtd"
   xmlns:inkscape="http://www.inkscape.org/namespaces/inkscape"
   width="415.93121"
   height="87.823997"
   id="svg2"
   version="1.1"
   inkscape:version="0.48.4 r9939"
   sodipodi:docname="earlgrey-text.svg">
  <defs
     id="defs4" />
  <sodipodi:namedview
     id="base"
     pagecolor="#ffffff"
     bordercolor="#666666"
     borderopacity="1.0"
     inkscape:pageopacity="0.0"
     inkscape:pageshadow="2"
     inkscape:zoom="1.4"
     inkscape:cx="49.868144"
     inkscape:cy="-127.47376"
     inkscape:document-units="px"
     inkscape:current-layer="layer1"
     showgrid="false"
     inkscape:snap-global="true"
     inkscape:snap-bbox="true"
     inkscape:window-width="1920"
     inkscape:window-height="1056"
     inkscape:window-x="0"
     inkscape:window-y="24"
     inkscape:window-maximized="1"
     fit-margin-top="0"
     fit-margin-left="0"
     fit-margin-right="0"
     fit-margin-bottom="0">
    <inkscape:grid
       type="xygrid"
       id="grid3756"
       empspacing="5"
       visible="true"
       enabled="true"
       snapvisiblegridlinesonly="true"
       originx="-168.48997px"
       originy="-520.95954px" />
  </sodipodi:namedview>
  <metadata
     id="metadata7">
    <rdf:RDF>
      <cc:Work
         rdf:about="">
        <dc:format>image/svg+xml</dc:format>
        <dc:type
           rdf:resource="http://purl.org/dc/dcmitype/StillImage" />
        <dc:title />
      </cc:Work>
    </rdf:RDF>
  </metadata>
  <g
     inkscape:label="Layer 1"
     inkscape:groupmode="layer"
     id="layer1"
     transform="translate(-168.48997,-443.57864)">
    <path
       style="fill:#000000;fill-opacity:1;stroke:#000000;stroke-width:1.29729629;stroke-linecap:butt;stroke-linejoin:miter;stroke-miterlimit:4;stroke-opacity:1"
       d="m 509.31845,475.29998 0,10.21633 -13.62177,11.91904 c 0,0 -18.04165,4.2761 -27.24354,5.10817 -8.08881,0.73142 -24.36513,-0.12161 -24.36513,-0.12161 l -1.17568,-22.01377 1.17568,-20.95968 c 0,0 16.28499,-0.31216 24.36513,0.52703 9.19,0.95447 27.24354,5.10817 27.24354,5.10817 z"
       id="path3061"
       inkscape:connector-curvature="0"
       sodipodi:nodetypes="cccscccscc" />
    <path
       sodipodi:nodetypes="cccscccscc"
       inkscape:connector-curvature="0"
       id="path3083"
       d="m 517.36643,475.29998 0,10.21633 13.62176,11.91904 c 0,0 18.04165,4.2761 27.24354,5.10817 8.08881,0.73142 24.36513,-0.12161 24.36513,-0.12161 l 1.17568,-22.01377 -1.17568,-20.95968 c 0,0 -16.28498,-0.31216 -24.36513,0.52703 -9.19,0.95447 -27.24354,5.10817 -27.24354,5.10817 z"
       style="fill:#000000;fill-opacity:1;stroke:#000000;stroke-width:1.29729629;stroke-linecap:butt;stroke-linejoin:miter;stroke-miterlimit:4;stroke-opacity:1" />
    <rect
       y="475.29999"
       x="509.60162"
       height="10.216326"
       width="1.702721"
       id="rect3095"
       style="fill:#ffffff;fill-opacity:1;stroke:#000000;stroke-width:0.68108839;stroke-miterlimit:4;stroke-opacity:1;stroke-dasharray:none" />
    <rect
       style="fill:#ffffff;fill-opacity:1;stroke:#000000;stroke-width:0.68108839;stroke-miterlimit:4;stroke-opacity:1;stroke-dasharray:none"
       id="rect3097"
       width="1.702721"
       height="10.216326"
       x="511.5589"
       y="475.29999" />
    <rect
       y="475.29999"
       x="513.51611"
       height="10.216326"
       width="1.702721"
       id="rect3099"
       style="fill:#ffffff;fill-opacity:1;stroke:#000000;stroke-width:0.68108839;stroke-miterlimit:4;stroke-opacity:1;stroke-dasharray:none" />
    <rect
       style="fill:#ffffff;fill-opacity:1;stroke:#000000;stroke-width:0.68108839;stroke-miterlimit:4;stroke-opacity:1;stroke-dasharray:none"
       id="rect3101"
       width="1.702721"
       height="10.216326"
       x="515.47339"
       y="475.29999" />
    <path
       sodipodi:nodetypes="cccccsccssccccc"
       inkscape:connector-curvature="0"
       id="path3103"
       d="m 509.62792,485.50609 0,6.15942 0,0.0321 0,0.0214 c 0,0 0.0308,1.25135 -0.0322,2.82798 -0.0631,1.57663 -0.25154,3.48133 -0.54172,4.4562 -0.88273,2.96553 -1.37707,4.20409 -2.43773,5.45242 -2.13353,0.97887 -0.13441,3.61544 1.34146,1.29283 1.31136,-1.54338 1.65754,-2.45897 2.5731,-5.53476 0.49946,-1.67794 0.64011,-3.75214 0.70939,-5.48455 0.0681,-1.70267 0.0398,-3.01696 0.0387,-3.06364 -1e-5,-6.8e-4 0,-0.0536 0,-0.0536 l 0,-6.10586 -1.65094,0 z"
       style="font-size:medium;font-style:normal;font-variant:normal;font-weight:normal;font-stretch:normal;text-indent:0;text-align:start;text-decoration:none;line-height:normal;letter-spacing:normal;word-spacing:normal;text-transform:none;direction:ltr;block-progression:tb;writing-mode:lr-tb;text-anchor:start;baseline-shift:baseline;color:#000000;fill:none;stroke:#000000;stroke-width:0.63000679;stroke-miterlimit:4;stroke-opacity:1;stroke-dasharray:none;marker:none;visibility:visible;display:inline;overflow:visible;enable-background:accumulate;font-family:Sans;-inkscape-font-specification:Sans" />
    <rect
       y="484.8291"
       x="509.94385"
       height="1.2040056"
       width="1.0212548"
       id="rect3107"
       style="fill:#ffffff;fill-opacity:1;stroke:none" />
    <path
       style="font-size:medium;font-style:normal;font-variant:normal;font-weight:normal;font-stretch:normal;text-indent:0;text-align:start;text-decoration:none;line-height:normal;letter-spacing:normal;word-spacing:normal;text-transform:none;direction:ltr;block-progression:tb;writing-mode:lr-tb;text-anchor:start;baseline-shift:baseline;color:#000000;fill:none;stroke:#000000;stroke-width:0.63000679;stroke-miterlimit:4;stroke-opacity:1;stroke-dasharray:none;marker:none;visibility:visible;display:inline;overflow:visible;enable-background:accumulate;font-family:Sans;-inkscape-font-specification:Sans"
       d="m 517.11513,485.50609 0,6.15942 0,0.0321 0,0.0214 c 0,0 -0.0308,1.25135 0.0323,2.82798 0.0631,1.57663 0.25154,3.48133 0.54172,4.4562 0.88274,2.96553 1.37708,4.20409 2.43773,5.45242 2.13353,0.97887 0.13442,3.61544 -1.34146,1.29283 -1.31136,-1.54338 -1.65754,-2.45897 -2.57309,-5.53476 -0.49947,-1.67794 -0.64012,-3.75214 -0.7094,-5.48455 -0.0681,-1.70267 -0.0398,-3.01696 -0.0387,-3.06364 2e-5,-6.8e-4 0,-0.0536 0,-0.0536 l 0,-6.10586 1.65095,0 z"
       id="path3113"
       inkscape:connector-curvature="0"
       sodipodi:nodetypes="cccccsccssccccc" />
    <rect
       transform="matrix(-0.9450348,0.32696976,0.32696976,0.9450348,0,0)"
       y="645.81848"
       x="-331.44363"
       height="12.162293"
       width="12.162293"
       id="rect3115"
       style="fill:#000000;fill-opacity:1;stroke:#000000;stroke-width:0.68108839;stroke-miterlimit:4;stroke-opacity:1;stroke-dasharray:none" />
    <rect
       style="fill:#000000;fill-opacity:1;stroke:#000000;stroke-width:0.68108839;stroke-miterlimit:4;stroke-opacity:1;stroke-dasharray:none"
       id="rect3105"
       width="12.162293"
       height="12.162293"
       x="638.86438"
       y="310.10486"
       transform="matrix(0.9450348,0.32696976,-0.32696976,0.9450348,0,0)" />
    <g
       transform="translate(742.26368,448.743)"
       style="font-size:40px;font-style:normal;font-weight:normal;line-height:125%;letter-spacing:0px;word-spacing:0px;fill:#000000;fill-opacity:1;stroke:#000000;stroke-width:2;stroke-miterlimit:4;stroke-opacity:1;stroke-dasharray:none;font-family:Sans"
       id="text2994">
      <path
         d="m -538.86171,27.731644 -7.704,-0.072 c -6.33602,2.7e-5 -11.28001,1.536025 -14.832,4.608 -4.176,3.552019 -6.264,7.680014 -6.264,12.384 0,2.208008 0.504,4.248006 1.512,6.12 1.056,1.824002 2.90399,3.336 5.544,4.536 2.68799,1.199998 6.28798,1.799997 10.8,1.8 4.55998,-3e-6 9.35997,-0.960002 14.4,-2.88 5.03996,-1.919998 9.28796,-4.223996 12.744,-6.912 3.93595,-3.07199 5.90395,-5.759987 5.904,-8.064 -5e-5,-1.103984 -0.57605,-1.775983 -1.728,-2.016 -1.15205,-0.287983 -1.75205,-0.599982 -1.8,-0.936 -0.096,-0.431981 0.26395,-0.623981 1.08,-0.576 0.81595,0.04802 1.48795,0.216018 2.016,0.504 2.15995,1.152017 3.23994,2.640016 3.24,4.464 -6e-5,2.688011 -1.87205,5.496008 -5.616,8.424 -3.69605,2.928002 -8.37604,5.256 -14.04,6.984 -5.66403,1.727997 -10.96803,2.591996 -15.912,2.592 -4.94402,-4e-6 -8.95201,-0.480004 -12.024,-1.44 -5.424,-1.680001 -8.952,-4.775998 -10.584,-9.288 -0.432,-1.151992 -0.648,-2.255991 -0.648,-3.312 0,-1.055989 0.192,-2.351988 0.576,-3.888 0.384,-1.583985 1.248,-3.383983 2.592,-5.4 1.344,-2.015979 3.288,-3.887977 5.832,-5.616 2.54399,-1.727974 5.25599,-2.999972 8.136,-3.816 2.92798,-0.863971 5.54398,-1.34397 7.848,-1.44 -2.40002,-0.863969 -4.44002,-2.063968 -6.12,-3.6 -1.68001,-1.535965 -2.52001,-3.191963 -2.52,-4.968 -10e-6,-0.143961 -10e-6,-0.287961 0,-0.432 0.33599,-3.887957 2.51998,-7.3679537 6.552,-10.4400003 4.03198,-3.1199472 8.25597,-5.25594509 12.672,-6.408 4.41596,-1.1999427 8.23196,-1.7999421 11.448,-1.8 1.00795,5.79e-5 1.99195,0.048058 2.952,0.144 3.98395,0.4800572 6.83995,1.4880562 8.568,3.02399998 1.72794,1.48805322 2.59194,3.00005172 2.592,4.53600002 -6e-5,2.160048 -1.24806,4.2480459 -3.744,6.2640003 -2.44805,1.968042 -5.42405,3.33604 -8.928,4.104 -0.86404,0.192039 -1.58404,0.288039 -2.16,0.288 -0.52804,3.9e-5 -0.76804,-0.143961 -0.72,-0.432 0.19196,-0.57596 1.00796,-0.935959 2.448,-1.08 1.43995,-0.191959 2.83195,-0.767959 4.176,-1.728 2.68795,-1.9679556 4.22395,-4.511953 4.608,-7.6320003 -5e-5,-0.1439495 -5e-5,-0.2879493 0,-0.432 -5e-5,-1.199948 -0.57605,-2.3039469 -1.728,-3.31200002 -1.44005,-1.34394452 -3.86405,-2.01594388 -7.272,-2.01599998 -3.40804,5.61e-5 -6.93604,0.55205558 -10.584,1.65599998 -3.64803,1.05605342 -7.00803,2.83205162 -10.08,5.32800002 -3.64802,2.9760462 -5.47202,6.2160433 -5.472,9.7200003 -2e-5,1.392038 0.40798,2.664036 1.224,3.816 0.86398,1.152034 2.08798,2.016033 3.672,2.592 1.63197,0.528032 3.26397,0.984032 4.896,1.368 3.69597,0.768031 5.54397,1.77603 5.544,3.024 -3e-5,1.104027 -1.03203,1.656027 -3.096,1.656"
         style="font-size:72px;font-variant:normal;font-stretch:normal;stroke:#000000;stroke-width:2;stroke-miterlimit:4;stroke-opacity:1;stroke-dasharray:none;font-family:Great Vibes;-inkscape-font-specification:Great Vibes"
         id="path2999"
         inkscape:connector-curvature="0" />
      <path
         d="m -489.65308,35.219644 c -0.86403,0.864018 -2.08802,2.832016 -3.672,5.904 -1.58402,3.02401 -2.54402,5.304008 -2.88,6.84 -0.28802,1.488005 -0.43202,2.712004 -0.432,3.672 -2e-5,0.912002 0.35998,1.368001 1.08,1.368 0.91198,10e-7 2.03998,-0.839998 3.384,-2.52 1.96797,-2.447994 3.91197,-5.63999 5.832,-9.576 0.19197,-0.431986 0.40797,-0.671986 0.648,-0.72 0.38397,-0.143986 0.57597,1.4e-5 0.576,0.432 -3e-5,0.240014 -0.072,0.528013 -0.216,0.864 -4.41603,8.928004 -8.13602,13.392 -11.16,13.392 -1.39202,0 -2.52002,-0.672 -3.384,-2.016 -0.43202,-0.719998 -0.64802,-1.679997 -0.648,-2.88 -2e-5,-1.199994 0.23998,-2.663993 0.72,-4.392 -3.84001,6.192003 -7.15201,9.288 -9.936,9.288 -0.76801,0 -1.46401,-0.24 -2.088,-0.72 -1.44,-1.007999 -2.16,-2.735997 -2.16,-5.184 0,-4.70399 2.04,-9.479985 6.12,-14.328 2.30399,-2.687978 5.13599,-4.439976 8.496,-5.256 0.91198,-0.239975 1.77598,-0.359975 2.592,-0.36 2.20798,2.5e-5 4.07998,0.768025 5.616,2.304 0.47997,0.528023 0.62397,1.032022 0.432,1.512 -0.19203,0.480021 -0.60002,0.672021 -1.224,0.576 -0.52802,-1.727977 -1.68002,-2.591976 -3.456,-2.592 -2.06402,2.4e-5 -4.60802,1.632022 -7.632,4.896 -1.72801,1.920017 -3.33601,4.176015 -4.824,6.768 -1.87201,3.120009 -2.80801,5.616006 -2.808,7.488 -1e-5,1.872003 0.59999,2.808002 1.8,2.808 2.87999,2e-6 6.64799,-4.415994 11.304,-13.248 0.91198,-1.775983 1.67998,-2.975982 2.304,-3.6 0.62398,-0.671981 1.41598,-1.007981 2.376,-1.008 0.19198,1.9e-5 0.67198,0.07202 1.44,0.216 0.81597,0.144019 1.41597,0.168019 1.8,0.072"
         style="font-size:72px;font-variant:normal;font-stretch:normal;stroke:#000000;stroke-width:2;stroke-miterlimit:4;stroke-opacity:1;stroke-dasharray:none;font-family:Great Vibes;-inkscape-font-specification:Great Vibes"
         id="path3001"
         inkscape:connector-curvature="0" />
      <path
         d="m -476.64921,25.859644 c -1e-5,2.160026 -1.36801,4.200024 -4.104,6.12 0.95999,0.04802 2.23199,0.07202 3.816,0.072 1.63199,2.2e-5 3.67199,-0.119978 6.12,-0.36 0.096,0.144023 0.14398,0.528022 0.144,1.152 -2e-5,0.624021 -0.28802,1.56002 -0.864,2.808 -0.57601,1.200018 -1.10401,2.256017 -1.584,3.168 -0.43201,0.864015 -0.86401,1.704014 -1.296,2.52 -0.38401,0.768012 -0.84001,1.728011 -1.368,2.88 -0.48001,1.152009 -0.88801,2.208008 -1.224,3.168 -1.20001,3.648003 -1.00801,5.472002 0.576,5.472 2.01599,2e-6 4.99199,-4.007994 8.928,-12.024 0.33598,-0.623986 0.59998,-0.863986 0.792,-0.72 0.23998,0.144014 0.35998,0.336014 0.36,0.576 -2e-5,0.192014 -0.31202,0.936013 -0.936,2.232 -0.62402,1.24801 -1.29602,2.544009 -2.016,3.888 -0.72002,1.344006 -1.84801,2.904005 -3.384,4.68 -1.82401,2.208001 -3.57601,3.312 -5.256,3.312 -1.87201,0 -3.168,-1.127999 -3.888,-3.384 -0.144,-0.431997 -0.216,-1.079996 -0.216,-1.944 0,-0.863994 0.264,-2.015993 0.792,-3.456 0.57599,-1.43999 1.46399,-3.191988 2.664,-5.256 1.19999,-2.063984 1.87199,-3.263983 2.016,-3.6 0.14399,-0.383982 0.21599,-0.743982 0.216,-1.08 -10e-6,-1.48798 -1.92001,-2.279979 -5.76,-2.376 l -0.864,2.304 c -3.024,7.92001 -5.928,13.224005 -8.712,15.912 -0.47999,0.432002 -0.71999,0.288002 -0.72,-0.432 1e-5,-0.143997 0.048,-0.311997 0.144,-0.504 2.688,-3.551993 5.016,-7.751989 6.984,-12.6 1.968,-4.847979 3.336,-9.455975 4.104,-13.824 0.28799,-1.487969 0.95999,-2.231968 2.016,-2.232 1.05599,3.2e-5 1.82399,0.672031 2.304,2.016 0.14399,0.43203 0.21599,0.936029 0.216,1.512"
         style="font-size:72px;font-variant:normal;font-stretch:normal;stroke:#000000;stroke-width:2;stroke-miterlimit:4;stroke-opacity:1;stroke-dasharray:none;font-family:Great Vibes;-inkscape-font-specification:Great Vibes"
         id="path3003"
         inkscape:connector-curvature="0" />
      <path
         d="m -463.70608,40.835644 c -0.048,0.192013 -0.26401,0.864013 -0.648,2.016 -0.38401,1.10401 -0.72001,2.184009 -1.008,3.24 -0.24001,1.008007 -0.36001,2.040006 -0.36,3.096 -10e-6,1.008004 0.23999,1.968003 0.72,2.88 0.47999,0.864001 1.24799,1.296001 2.304,1.296 1.72799,10e-7 3.40799,-1.151998 5.04,-3.456 1.63198,-2.351993 3.35998,-5.32799 5.184,-8.928 0.38398,-0.671986 0.74398,-0.935986 1.08,-0.792 0.23998,0.192014 0.28798,0.456014 0.144,0.792 -0.14402,0.288013 -0.45602,0.960012 -0.936,2.016 -0.43202,1.00801 -0.76802,1.72801 -1.008,2.16 -0.19202,0.384009 -0.57602,1.104008 -1.152,2.16 -0.52802,1.008006 -1.00802,1.776005 -1.44,2.304 -0.38402,0.480004 -0.93602,1.128004 -1.656,1.944 -0.67201,0.768002 -1.32001,1.344002 -1.944,1.728 -1.68001,1.056 -3.26401,1.584 -4.752,1.584 -1.48801,0 -2.64001,-0.312 -3.456,-0.936 -0.816,-0.671999 -1.32,-1.367998 -1.512,-2.088 -0.144,-0.767997 -0.216,-1.439996 -0.216,-2.016 0,-0.575995 0.024,-1.319994 0.072,-2.232 0.144,-1.535992 0.432,-3.02399 0.864,-4.464 0.48,-1.439987 0.744,-2.255986 0.792,-2.448 1.10399,-3.983982 2.66399,-8.327978 4.68,-13.032 2.06399,-4.703969 3.79199,-8.231965 5.184,-10.584 1.43998,-2.39996 2.56798,-4.031959 3.384,-4.896 1.63198,-1.727956 3.23998,-2.5919552 4.824,-2.5920003 1.10398,4.51e-5 1.84798,0.7920443 2.232,2.3760003 0.048,0.288042 0.072,0.648042 0.072,1.08 -3e-5,1.63204 -0.57602,3.696038 -1.728,6.192 -4.12802,9.168026 -9.04801,16.368019 -14.76,21.6 m 0.576,-2.304 c 2.44799,-2.495982 4.87199,-5.639978 7.272,-9.432 2.39998,-3.791971 4.15198,-7.007968 5.256,-9.648 1.15198,-2.687962 1.72798,-4.511961 1.728,-5.472 -2e-5,-0.959959 -0.16802,-1.439958 -0.504,-1.44 -0.48002,4.2e-5 -1.39202,0.960041 -2.736,2.88 -1.34402,1.872037 -3.16802,5.280034 -5.472,10.224 -2.25601,4.896024 -4.10401,9.19202 -5.544,12.888"
         style="font-size:72px;font-variant:normal;font-stretch:normal;stroke:#000000;stroke-width:2;stroke-miterlimit:4;stroke-opacity:1;stroke-dasharray:none;font-family:Great Vibes;-inkscape-font-specification:Great Vibes"
         id="path3005"
         inkscape:connector-curvature="0" />
      <path
         d="m -426.29083,21.467644 c -2.30401,4.992028 -3.45601,9.456023 -3.456,13.392 -1e-5,8.112011 2.78399,13.080006 8.352,14.904 1.63198,0.432004 3.28798,0.648004 4.968,0.648 1.72798,4e-6 3.45597,-0.215996 5.184,-0.648 3.45597,-0.911994 6.55197,-2.279993 9.288,-4.104 2.73596,-1.823989 4.46396,-3.575988 5.184,-5.256 1.91996,-4.463982 3.98395,-6.695979 6.192,-6.696 1.10395,2.1e-5 1.84795,0.62402 2.232,1.872 0.19195,0.480018 0.23995,1.008018 0.144,1.584 -0.48005,3.744014 -1.51205,7.46401 -3.096,11.16 -1.58405,3.648002 -3.81604,7.847998 -6.696,12.6 5.75995,0.04799 11.01595,0.671993 15.768,1.872 1.00794,0.239991 1.51194,0.575991 1.512,1.008 -6e-5,0.52799 -0.69606,0.62399 -2.088,0.288 -3.31205,-0.864009 -8.08805,-1.296008 -14.328,-1.296 -0.57604,-8e-6 -1.20004,-8e-6 -1.872,0 -2.92804,4.223987 -6.84003,7.943984 -11.736,11.16 -4.84802,3.263977 -9.57602,5.495975 -14.184,6.696 -2.54401,0.671973 -4.70401,1.007973 -6.48,1.008 -1.77601,-2.7e-5 -3.264,-0.216027 -4.464,-0.648 -3.504,-1.296025 -5.256,-3.000024 -5.256,-5.112 0,-0.624021 0.168,-1.29602 0.504,-2.016 1.296,-2.880017 4.704,-5.544014 10.224,-7.992 4.17599,-1.87201 8.56798,-3.144008 13.176,-3.816 4.65597,-0.672007 9.86397,-1.056007 15.624,-1.152 3.55196,-6.000001 5.97596,-11.903995 7.272,-17.712 l 0.288,-1.224 c -2.30404,2.20801 -4.92004,4.176008 -7.848,5.904 -2.88003,1.680005 -5.40003,2.856004 -7.56,3.528 -3.45603,1.104002 -6.31202,1.656001 -8.568,1.656 -2.20802,1e-6 -4.15202,-0.311998 -5.832,-0.936 -3.07201,-1.055997 -5.56801,-3.167995 -7.488,-6.336 -2.064,-3.359988 -3.096,-7.367984 -3.096,-12.024 0,-4.655975 1.22399,-9.64797 3.672,-14.976 -3.168,-3.263961 -4.752,-6.719958 -4.752,-10.3680003 0,-3.69595 1.488,-7.1999465 4.464,-10.512 0.57599,-0.6239426 0.98399,-0.8399424 1.224,-0.648 0.28799,0.1440573 0.19199,0.5520569 -0.288,1.224 -2.16001,2.8800533 -3.24,5.7840504 -3.24,8.712 0,3.3600443 1.24799,6.5040413 3.744,9.4320003 0.28799,-0.623962 0.81599,-1.559961 1.584,-2.808 3.74399,-6.1439533 8.83198,-10.8479486 15.264,-14.11200032 5.03997,-2.59194238 9.91196,-3.88794108 14.616,-3.88799998 1.29596,5.89e-5 2.59196,0.096059 3.888,0.288 6.19195,0.9600576 10.36795,3.50405508 12.528,7.632 0.86394,1.6320493 1.29594,3.4080475 1.296,5.328 -6e-5,1.8720433 -0.60006,3.8880413 -1.8,6.0480003 -2.68805,4.656035 -7.39205,7.920031 -14.112,9.792 -3.55204,1.008028 -7.17603,1.512028 -10.872,1.512 -7.77602,2.8e-5 -14.13602,-1.65597 -19.08,-4.968 m 29.808,-23.4000003 c -4.12804,5.66e-5 -8.49603,1.39205525 -13.104,4.176 -6.76802,4.0320484 -12.02402,9.8160423 -15.768,17.3520003 2.25598,1.728033 4.84798,2.952032 7.776,3.672 2.97598,0.72003 5.35197,1.08003 7.128,1.08 10.12796,3e-5 17.78395,-2.711967 22.968,-8.136 2.59195,-2.783959 3.88795,-5.567956 3.888,-8.3520003 -5e-5,-4.4159487 -2.47205,-7.39194576 -7.416,-8.928 -1.82405,-0.5759436 -3.64804,-0.8639434 -5.472,-0.864 m -40.968,78.3360003 c 0,1.343977 1.152,2.255976 3.456,2.736 0.76799,0.191975 1.60799,0.287975 2.52,0.288 3.40799,-2.5e-5 7.72799,-1.224024 12.96,-3.672 6.62397,-3.024018 11.87997,-7.320014 15.768,-12.888 -5.04003,0.143991 -9.45603,0.527991 -13.248,1.152 -5.47202,0.81599 -10.68001,2.807988 -15.624,5.976 -3.888,2.495982 -5.832,4.63198 -5.832,6.408"
         style="font-size:72px;font-variant:normal;font-stretch:normal;stroke:#000000;stroke-width:2;stroke-miterlimit:4;stroke-opacity:1;stroke-dasharray:none;font-family:Great Vibes;-inkscape-font-specification:Great Vibes"
         id="path3007"
         inkscape:connector-curvature="0" />
      <path
         d="m -373.57108,25.859644 c -1e-5,2.160026 -1.36801,4.200024 -4.104,6.12 0.95999,0.04802 2.23199,0.07202 3.816,0.072 1.63198,2.2e-5 3.67198,-0.119978 6.12,-0.36 0.096,0.144023 0.14398,0.528022 0.144,1.152 -2e-5,0.624021 -0.28802,1.56002 -0.864,2.808 -0.57602,1.200018 -1.10402,2.256017 -1.584,3.168 -0.43202,0.864015 -0.86402,1.704014 -1.296,2.52 -0.38402,0.768012 -0.84002,1.728011 -1.368,2.88 -0.48001,1.152009 -0.88801,2.208008 -1.224,3.168 -1.20001,3.648003 -1.00801,5.472002 0.576,5.472 2.01598,2e-6 4.99198,-4.007994 8.928,-12.024 0.33598,-0.623986 0.59998,-0.863986 0.792,-0.72 0.23998,0.144014 0.35998,0.336014 0.36,0.576 -2e-5,0.192014 -0.31202,0.936013 -0.936,2.232 -0.62402,1.24801 -1.29602,2.544009 -2.016,3.888 -0.72002,1.344006 -1.84802,2.904005 -3.384,4.68 -1.82402,2.208001 -3.57601,3.312 -5.256,3.312 -1.87201,0 -3.16801,-1.127999 -3.888,-3.384 -0.14401,-0.431997 -0.21601,-1.079996 -0.216,-1.944 -1e-5,-0.863994 0.26399,-2.015993 0.792,-3.456 0.57599,-1.43999 1.46399,-3.191988 2.664,-5.256 1.19999,-2.063984 1.87199,-3.263983 2.016,-3.6 0.14399,-0.383982 0.21599,-0.743982 0.216,-1.08 -1e-5,-1.48798 -1.92001,-2.279979 -5.76,-2.376 l -0.864,2.304 c -3.02401,7.92001 -5.928,13.224005 -8.712,15.912 -0.48,0.432002 -0.72,0.288002 -0.72,-0.432 0,-0.143997 0.048,-0.311997 0.144,-0.504 2.688,-3.551993 5.016,-7.751989 6.984,-12.6 1.96799,-4.847979 3.33599,-9.455975 4.104,-13.824 0.28799,-1.487969 0.95999,-2.231968 2.016,-2.232 1.05599,3.2e-5 1.82399,0.672031 2.304,2.016 0.14399,0.43203 0.21599,0.936029 0.216,1.512"
         style="font-size:72px;font-variant:normal;font-stretch:normal;stroke:#000000;stroke-width:2;stroke-miterlimit:4;stroke-opacity:1;stroke-dasharray:none;font-family:Great Vibes;-inkscape-font-specification:Great Vibes"
         id="path3009"
         inkscape:connector-curvature="0" />
      <path
         d="m -361.41996,43.643644 c -0.672,1.632009 -1.008,3.456007 -1.008,5.472 0,1.344004 0.288,2.424003 0.864,3.24 0.624,0.768001 1.488,1.152001 2.592,1.152 4.36799,10e-7 8.32799,-4.103995 11.88,-12.312 0.33598,-0.767986 0.74398,-1.103986 1.224,-1.008 0.19198,0.04801 0.28798,0.168014 0.288,0.36 -2e-5,0.192014 -0.55202,1.464012 -1.656,3.816 -1.05602,2.304008 -2.13601,4.176006 -3.24,5.616 -2.44801,3.360001 -5.47201,5.039999 -9.072,5.04 -1.92,-10e-7 -3.552,-0.624 -4.896,-1.872 -1.344,-1.247997 -2.016,-2.951996 -2.016,-5.112 0,-2.159991 0.504,-4.439989 1.512,-6.84 1.056,-2.447984 2.472,-4.703982 4.248,-6.768 1.77599,-2.111978 3.81599,-3.647976 6.12,-4.608 1.10399,-0.479975 2.15999,-0.719975 3.168,-0.72 1.00799,2.5e-5 1.94399,0.288025 2.808,0.864 0.81598,0.672024 1.22398,1.416023 1.224,2.232 -2e-5,2.880019 -1.72802,5.640017 -5.184,8.28 -1.05601,0.816013 -2.54401,1.560012 -4.464,2.232 -1.92001,0.624011 -3.384,0.936011 -4.392,0.936 m 12.096,-11.52 c -10e-6,-0.959977 -0.38401,-1.439976 -1.152,-1.44 -1.34401,2.4e-5 -3.38401,1.656022 -6.12,4.968 -1.63201,2.016017 -3.072,4.272014 -4.32,6.768 0.816,1.2e-5 1.99199,-0.287988 3.528,-0.864 1.58399,-0.575987 2.95199,-1.343986 4.104,-2.304 2.63999,-2.255983 3.95999,-4.63198 3.96,-7.128"
         style="font-size:72px;font-variant:normal;font-stretch:normal;stroke:#000000;stroke-width:2;stroke-miterlimit:4;stroke-opacity:1;stroke-dasharray:none;font-family:Great Vibes;-inkscape-font-specification:Great Vibes"
         id="path3011"
         inkscape:connector-curvature="0" />
      <path
         d="m -356.80521,77.483644 c -2.11199,-2.3e-5 -3.74399,-0.456023 -4.896,-1.368 -1.15198,-0.864021 -1.72798,-1.92002 -1.728,-3.168 2e-5,-1.248017 0.36002,-2.664016 1.08,-4.248 1.24801,-2.448012 3.50401,-4.41601 6.768,-5.904 2.44801,-1.152007 5.688,-2.232006 9.72,-3.24 4.032,-0.960004 6.62399,-1.608004 7.776,-1.944 1.72799,-3.024 3.79199,-8.423995 6.192,-16.2 -2.78401,4.896008 -5.11201,8.328005 -6.984,10.296 -1.87201,1.968001 -3.768,2.952 -5.688,2.952 -2.592,0 -4.104,-1.079999 -4.536,-3.24 -0.192,-0.335997 -0.24,-0.839996 -0.144,-1.512 0.096,-0.671995 0.144,-1.151994 0.144,-1.44 0.048,-0.287994 0.216,-0.743993 0.504,-1.368 0.288,-0.671992 0.48,-1.151992 0.576,-1.44 0.528,-1.10399 0.984,-1.967989 1.368,-2.592 -0.768,1.1e-5 -0.984,-0.383988 -0.648,-1.152 l 1.296,-2.52 c 1.632,-3.119982 2.976,-5.759979 4.032,-7.92 0.47999,-1.007976 1.41599,-1.511976 2.808,-1.512 l 4.392,0 c -0.096,0.09602 -0.33601,0.288024 -0.72,0.576 -0.86401,0.576023 -1.51201,1.248023 -1.944,2.016 -1.72801,2.976019 -3.88801,7.224015 -6.48,12.744 -1.056,2.256007 -1.584,3.912005 -1.584,4.968 0,1.056003 0.168,1.800002 0.504,2.232 0.384,0.432001 0.888,0.648001 1.512,0.648 0.912,10e-7 2.18399,-0.959998 3.816,-2.88 3.40799,-3.983992 7.17599,-10.247986 11.304,-18.792 0.52798,-1.007976 1.46398,-1.511976 2.808,-1.512 l 3.888,0 c -1.24802,0.864024 -2.23202,1.968022 -2.952,3.312 -0.72002,1.29602 -1.51202,3.072018 -2.376,5.328 -0.81602,2.256014 -1.87202,5.256011 -3.168,9 -1.24802,3.744003 -2.20801,6.552 -2.88,8.424 4.51198,-1.344 7.96798,-3.719998 10.368,-7.128 1.05598,-1.487993 2.56797,-4.12799 4.536,-7.92 0.33597,-0.671986 0.62397,-0.935986 0.864,-0.792 0.28797,0.144014 0.43197,0.336014 0.432,0.576 -3e-5,0.240013 -0.40803,1.176012 -1.224,2.808 -0.76803,1.584009 -1.56003,3.072008 -2.376,4.464 -0.81603,1.344005 -1.87202,2.736004 -3.168,4.176 -1.29602,1.440001 -2.73602,2.568 -4.32,3.384 -1.58402,0.863998 -3.69601,1.775997 -6.336,2.736 -3.69601,6.719989 -7.416,11.663984 -11.16,14.832 -3.504,2.879978 -7.29599,4.319977 -11.376,4.32 m -4.176,-7.128 c -0.52799,1.055983 -0.79198,2.015982 -0.792,2.88 2e-5,0.91198 0.33601,1.60798 1.008,2.088 0.67201,0.479979 1.51201,0.719978 2.52,0.72 2.78401,-2.2e-5 5.76001,-1.44002 8.928,-4.32 3.168,-2.832014 5.952,-5.880011 8.352,-9.144 l 1.584,-2.664 c -7.92,2.063992 -12.91199,3.551991 -14.976,4.464 -3.07199,1.343989 -5.27999,3.335987 -6.624,5.976"
         style="font-size:72px;font-variant:normal;font-stretch:normal;stroke:#000000;stroke-width:2;stroke-miterlimit:4;stroke-opacity:1;stroke-dasharray:none;font-family:Great Vibes;-inkscape-font-specification:Great Vibes"
         id="path3013"
         inkscape:connector-curvature="0" />
    </g>
  </g>
</svg>
